<svg width="40" height="40" viewBox="0 0 40 40" fill="none" xmlns="http://www.w3.org/2000/svg">
<path d="M20.0002 4.4165C16.3166 4.4165 12.7839 5.86516 10.1792 8.44379C7.57456 11.0224 6.11127 14.5198 6.11127 18.1665V18.6248C6.11127 18.9895 5.96495 19.3392 5.70448 19.5971C5.44401 19.855 5.09074 19.9998 4.72239 19.9998C4.35403 19.9998 4.00076 19.855 3.74029 19.5971C3.47982 19.3392 3.3335 18.9895 3.3335 18.6248V18.1665C3.3335 13.7904 5.08944 9.59359 8.21505 6.49924C11.3407 3.40489 15.5799 1.6665 20.0002 1.6665C24.4204 1.6665 28.6597 3.40489 31.7853 6.49924C34.9109 9.59359 36.6668 13.7904 36.6668 18.1665V18.6248C36.6668 18.9895 36.5205 19.3392 36.26 19.5971C35.9996 19.855 35.6463 19.9998 35.2779 19.9998C34.9096 19.9998 34.5563 19.855 34.2958 19.5971C34.0354 19.3392 33.8891 18.9895 33.8891 18.6248V18.1665C33.8891 14.5198 32.4258 11.0224 29.8211 8.44379C27.2164 5.86516 23.6837 4.4165 20.0002 4.4165ZM20.0002 9.9165C17.79 9.9165 15.6704 10.7857 14.1076 12.3329C12.5448 13.88 11.6668 15.9785 11.6668 18.1665V18.6248C11.6668 18.9895 11.5205 19.3392 11.26 19.5971C10.9996 19.855 10.6463 19.9998 10.2779 19.9998C9.90958 19.9998 9.55631 19.855 9.29585 19.5971C9.03538 19.3392 8.88905 18.9895 8.88905 18.6248V18.1665C8.88905 15.2491 10.0597 12.4512 12.1434 10.3883C14.2272 8.32543 17.0533 7.1665 20.0002 7.1665C22.947 7.1665 25.7732 8.32543 27.8569 10.3883C29.9406 12.4512 31.1113 15.2491 31.1113 18.1665V18.6248C31.1113 18.9895 30.9649 19.3392 30.7045 19.5971C30.444 19.855 30.0907 19.9998 29.7224 19.9998C29.354 19.9998 29.0008 19.855 28.7403 19.5971C28.4798 19.3392 28.3335 18.9895 28.3335 18.6248V18.1665C28.3335 15.9785 27.4555 13.88 25.8927 12.3329C24.3299 10.7857 22.2103 9.9165 20.0002 9.9165ZM20.0002 12.6665C18.6464 12.6643 17.3384 13.1516 16.3219 14.0367C15.3054 14.9219 14.6503 16.1441 14.4798 17.4736C14.3092 18.8032 14.6349 20.1486 15.3957 21.2573C16.1564 22.3659 17.2999 23.1613 18.6113 23.4942V27.3332H8.88905C7.41563 27.3332 6.00255 27.9126 4.96068 28.9441C3.91881 29.9755 3.3335 31.3745 3.3335 32.8332C3.3335 34.2919 3.91881 35.6908 4.96068 36.7223C6.00255 37.7537 7.41563 38.3332 8.88905 38.3332H31.1113C32.5847 38.3332 33.9978 37.7537 35.0396 36.7223C36.0815 35.6908 36.6668 34.2919 36.6668 32.8332C36.6668 31.3745 36.0815 29.9755 35.0396 28.9441C33.9978 27.9126 32.5847 27.3332 31.1113 27.3332H21.3891V23.4942C22.6975 23.1584 23.8375 22.362 24.5957 21.2541C25.3538 20.1462 25.6781 18.8028 25.5078 17.4752C25.3375 16.1477 24.6843 14.9271 23.6705 14.042C22.6568 13.1568 21.3519 12.6678 20.0002 12.6665ZM17.2224 18.1665C17.2224 17.4372 17.515 16.7377 18.036 16.222C18.5569 15.7062 19.2634 15.4165 20.0002 15.4165C20.7369 15.4165 21.4434 15.7062 21.9643 16.222C22.4853 16.7377 22.7779 17.4372 22.7779 18.1665C22.7779 18.8958 22.4853 19.5953 21.9643 20.111C21.4434 20.6268 20.7369 20.9165 20.0002 20.9165C19.2634 20.9165 18.5569 20.6268 18.036 20.111C17.515 19.5953 17.2224 18.8958 17.2224 18.1665ZM8.88905 30.0832H31.1113C31.848 30.0832 32.5545 30.3729 33.0755 30.8886C33.5964 31.4044 33.8891 32.1038 33.8891 32.8332C33.8891 33.5625 33.5964 34.262 33.0755 34.7777C32.5545 35.2934 31.848 35.5832 31.1113 35.5832H8.88905C8.15234 35.5832 7.4458 35.2934 6.92487 34.7777C6.40393 34.262 6.11127 33.5625 6.11127 32.8332C6.11127 32.1038 6.40393 31.4044 6.92487 30.8886C7.4458 30.3729 8.15234 30.0832 8.88905 30.0832Z" fill="black"/>
</svg>
