<svg width="40" height="40" viewBox="0 0 40 40" fill="none" xmlns="http://www.w3.org/2000/svg">
<path d="M36.9552 11.3782C36.6587 11.0811 36.3065 10.8454 35.9187 10.6845C35.531 10.5237 35.1153 10.4409 34.6956 10.4409C34.2758 10.4409 33.8601 10.5237 33.4724 10.6845C33.0847 10.8454 32.7325 11.0811 32.436 11.3782L20.0001 23.8141L7.56416 11.3782C6.96487 10.779 6.15207 10.4423 5.30455 10.4423C4.45702 10.4423 3.64421 10.779 3.04493 11.3782C2.44564 11.9775 2.10897 12.7903 2.10897 13.6379C2.10897 14.4854 2.44564 15.2982 3.04493 15.8975L17.7565 30.609C18.053 30.9061 18.4052 31.1419 18.7929 31.3027C19.1807 31.4635 19.5963 31.5463 20.0161 31.5463C20.4359 31.5463 20.8515 31.4635 21.2392 31.3027C21.627 31.1419 21.9792 30.9061 22.2757 30.609L36.9872 15.8975C38.2052 14.6795 38.2052 12.6282 36.9552 11.3782Z" fill="#4B4B4B"/>
</svg>
