<svg width="40" height="40" viewBox="0 0 40 40" fill="none" xmlns="http://www.w3.org/2000/svg">
<path d="M30.9667 4.90662C30.3416 4.28172 29.4939 3.93066 28.6101 3.93066C27.7262 3.93066 26.8785 4.28172 26.2534 4.90662L23.5117 7.64995L32.3501 16.4883L35.0917 13.7483C35.4014 13.4387 35.647 13.0712 35.8146 12.6667C35.9822 12.2622 36.0685 11.8286 36.0685 11.3908C36.0685 10.9529 35.9822 10.5194 35.8146 10.1149C35.647 9.71036 35.4014 9.34283 35.0917 9.03329L30.9667 4.90662ZM29.9934 18.845L21.1551 10.0066L6.43005 24.7316L4.63672 35.365L15.2701 33.57L29.9934 18.845Z" fill="black"/>
</svg>
