<svg width="40" height="40" viewBox="0 0 40 40" fill="none" xmlns="http://www.w3.org/2000/svg">
<path d="M12.7776 11.1166C12.1882 11.1166 11.623 11.3508 11.2063 11.7675C10.7895 12.1843 10.5554 12.7495 10.5554 13.3389C10.5554 13.9282 10.7895 14.4935 11.2063 14.9102C11.623 15.327 12.1882 15.5611 12.7776 15.5611C13.367 15.5611 13.9322 15.327 14.349 14.9102C14.7657 14.4935 14.9998 13.9282 14.9998 13.3389C14.9998 12.7495 14.7657 12.1843 14.349 11.7675C13.9322 11.3508 13.367 11.1166 12.7776 11.1166ZM6.48873 11.1166C6.94784 9.81545 7.79926 8.68871 8.92561 7.89173C10.052 7.09474 11.3978 6.66675 12.7776 6.66675C14.1574 6.66675 15.5033 7.09474 16.6296 7.89173C17.756 8.68871 18.6074 9.81545 19.0665 11.1166H34.9998C35.5892 11.1166 36.1544 11.3508 36.5712 11.7675C36.9879 12.1843 37.2221 12.7495 37.2221 13.3389C37.2221 13.9282 36.9879 14.4935 36.5712 14.9102C36.1544 15.327 35.5892 15.5611 34.9998 15.5611H19.0665C18.6074 16.8623 17.756 17.989 16.6296 18.786C15.5033 19.583 14.1574 20.011 12.7776 20.011C11.3978 20.011 10.052 19.583 8.92561 18.786C7.79926 17.989 6.94784 16.8623 6.48873 15.5611H3.88873C3.29936 15.5611 2.73413 15.327 2.31738 14.9102C1.90063 14.4935 1.6665 13.9282 1.6665 13.3389C1.6665 12.7495 1.90063 12.1843 2.31738 11.7675C2.73413 11.3508 3.29936 11.1166 3.88873 11.1166H6.48873ZM26.1109 24.45C25.5216 24.45 24.9563 24.6841 24.5396 25.1008C24.1229 25.5176 23.8887 26.0828 23.8887 26.6722C23.8887 27.2616 24.1229 27.8268 24.5396 28.2435C24.9563 28.6603 25.5216 28.8944 26.1109 28.8944C26.7003 28.8944 27.2655 28.6603 27.6823 28.2435C28.099 27.8268 28.3332 27.2616 28.3332 26.6722C28.3332 26.0828 28.099 25.5176 27.6823 25.1008C27.2655 24.6841 26.7003 24.45 26.1109 24.45ZM19.8221 24.45C20.2812 23.1488 21.1326 22.022 22.2589 21.2251C23.3853 20.4281 24.7311 20.0001 26.1109 20.0001C27.4908 20.0001 28.8366 20.4281 29.9629 21.2251C31.0893 22.022 31.9407 23.1488 32.3998 24.45H34.9998C35.5892 24.45 36.1544 24.6841 36.5712 25.1008C36.9879 25.5176 37.2221 26.0828 37.2221 26.6722C37.2221 27.2616 36.9879 27.8268 36.5712 28.2435C36.1544 28.6603 35.5892 28.8944 34.9998 28.8944H32.3998C31.9407 30.1956 31.0893 31.3223 29.9629 32.1193C28.8366 32.9163 27.4908 33.3443 26.1109 33.3443C24.7311 33.3443 23.3853 32.9163 22.2589 32.1193C21.1326 31.3223 20.2812 30.1956 19.8221 28.8944H3.88873C3.29936 28.8944 2.73413 28.6603 2.31738 28.2435C1.90063 27.8268 1.6665 27.2616 1.6665 26.6722C1.6665 26.0828 1.90063 25.5176 2.31738 25.1008C2.73413 24.6841 3.29936 24.45 3.88873 24.45H19.8221Z" fill="black"/>
</svg>
