<svg width="40" height="40" viewBox="0 0 40 40" fill="none" xmlns="http://www.w3.org/2000/svg">
<path d="M13.3834 28.3834L15.8834 25.8834C16.0062 25.769 16.1047 25.631 16.173 25.4777C16.2413 25.3243 16.2781 25.1588 16.281 24.991C16.284 24.8231 16.2531 24.6564 16.1902 24.5008C16.1274 24.3451 16.0338 24.2037 15.9151 24.085C15.7964 23.9663 15.655 23.8728 15.4994 23.8099C15.3437 23.747 15.177 23.7161 15.0092 23.7191C14.8413 23.7221 14.6758 23.7588 14.5225 23.8271C14.3691 23.8954 14.2311 23.9939 14.1167 24.1168L11.6167 26.6168C11.4939 26.7312 11.3954 26.8692 11.3271 27.0225C11.2587 27.1759 11.222 27.3414 11.219 27.5092C11.2161 27.6771 11.247 27.8438 11.3098 27.9994C11.3727 28.1551 11.4663 28.2965 11.585 28.4152C11.7037 28.5338 11.845 28.6274 12.0007 28.6903C12.1563 28.7532 12.3231 28.784 12.4909 28.7811C12.6587 28.7781 12.8243 28.7414 12.9776 28.6731C13.1309 28.6047 13.2689 28.5062 13.3834 28.3834ZM13.75 10.0001V17.8168L5.05003 26.5151C4.7018 26.8633 4.42557 27.2767 4.23712 27.7317C4.04866 28.1867 3.95166 28.6743 3.95166 29.1668C3.95166 29.6592 4.04866 30.1469 4.23712 30.6018C4.42557 31.0568 4.7018 31.4702 5.05003 31.8184L8.18336 34.9501C8.53158 35.2983 8.94498 35.5745 9.39995 35.763C9.85493 35.9515 10.3426 36.0485 10.835 36.0485C11.3275 36.0485 11.8151 35.9515 12.2701 35.763C12.7251 35.5745 13.1385 35.2983 13.4867 34.9501L22.1867 26.2501H30C30.3314 26.2498 30.6492 26.1179 30.8834 25.8834L34.1167 22.6518C34.4649 22.3035 34.7411 21.8901 34.9296 21.4352C35.1181 20.9802 35.2151 20.4925 35.2151 20.0001C35.2151 19.5076 35.1181 19.02 34.9296 18.565C34.7411 18.11 34.4649 17.6966 34.1167 17.3484L22.65 5.88342C21.9468 5.18066 20.9934 4.78589 19.9992 4.78589C19.005 4.78589 18.0516 5.18066 17.3484 5.88342L14.115 9.11675C13.8805 9.35095 13.7487 9.66868 13.7484 10.0001M19.115 7.65175C19.3494 7.41767 19.6671 7.28619 19.9984 7.28619C20.3296 7.28619 20.6473 7.41767 20.8817 7.65175L32.3467 19.1168C32.5808 19.3511 32.7123 19.6688 32.7123 20.0001C32.7123 20.3313 32.5808 20.649 32.3467 20.8834L29.9967 23.2334L16.7667 10.0001L19.115 7.65175ZM16.2484 13.0184L26.9817 23.7501H22.1817L16.2484 17.8168V13.0184ZM15 20.1001L19.9 25.0001L11.7167 33.1818C11.4823 33.4158 11.1646 33.5473 10.8334 33.5473C10.5021 33.5473 10.1844 33.4158 9.95003 33.1818L6.81669 30.0501C6.58261 29.8157 6.45113 29.498 6.45113 29.1668C6.45113 28.8355 6.58261 28.5178 6.81669 28.2834L15 20.1001Z" fill="black"/>
</svg>
