<svg width="40" height="40" viewBox="0 0 40 40" fill="none" xmlns="http://www.w3.org/2000/svg">
<path d="M29.1667 3.33325C29.1667 3.00173 29.035 2.68379 28.8006 2.44937C28.5662 2.21495 28.2482 2.08325 27.9167 2.08325C27.5852 2.08325 27.2672 2.21495 27.0328 2.44937C26.7984 2.68379 26.6667 3.00173 26.6667 3.33325V4.99992C26.6667 5.33144 26.7984 5.64938 27.0328 5.8838C27.2672 6.11822 27.5852 6.24992 27.9167 6.24992C28.2482 6.24992 28.5662 6.11822 28.8006 5.8838C29.035 5.64938 29.1667 5.33144 29.1667 4.99992V3.33325ZM35.8834 4.11659C35.649 3.8825 35.3313 3.75102 35 3.75102C34.6688 3.75102 34.3511 3.8825 34.1167 4.11659L30.7834 7.44992C30.6605 7.56435 30.562 7.70236 30.4937 7.85569C30.4254 8.00902 30.3887 8.17454 30.3857 8.34238C30.3827 8.51022 30.4136 8.67693 30.4765 8.83258C30.5394 8.98823 30.6329 9.12962 30.7516 9.24832C30.8703 9.36701 31.0117 9.46059 31.1674 9.52346C31.323 9.58632 31.4897 9.6172 31.6576 9.61424C31.8254 9.61128 31.9909 9.57454 32.1443 9.50622C32.2976 9.4379 32.4356 9.3394 32.55 9.21659L35.8834 5.88325C36.1174 5.64888 36.2489 5.33117 36.2489 4.99992C36.2489 4.66867 36.1174 4.35096 35.8834 4.11659ZM13.3834 28.3833L15.8834 25.8833C16.0062 25.7688 16.1047 25.6308 16.173 25.4775C16.2413 25.3242 16.2781 25.1586 16.281 24.9908C16.284 24.823 16.2531 24.6562 16.1902 24.5006C16.1274 24.3449 16.0338 24.2036 15.9151 24.0849C15.7964 23.9662 15.655 23.8726 15.4994 23.8097C15.3437 23.7468 15.177 23.716 15.0092 23.7189C14.8413 23.7219 14.6758 23.7586 14.5225 23.827C14.3691 23.8953 14.2311 23.9938 14.1167 24.1166L11.6167 26.6166C11.4939 26.731 11.3954 26.869 11.3271 27.0224C11.2587 27.1757 11.222 27.3412 11.219 27.509C11.2161 27.6769 11.247 27.8436 11.3098 27.9992C11.3727 28.1549 11.4663 28.2963 11.585 28.415C11.7037 28.5337 11.845 28.6273 12.0007 28.6901C12.1563 28.753 12.3231 28.7839 12.4909 28.7809C12.6587 28.7779 12.8243 28.7412 12.9776 28.6729C13.1309 28.6046 13.2689 28.5061 13.3834 28.3833ZM13.75 9.99992V17.8166L5.05003 26.5149C4.7018 26.8631 4.42557 27.2765 4.23712 27.7315C4.04866 28.1865 3.95166 28.6741 3.95166 29.1666C3.95166 29.659 4.04866 30.1467 4.23712 30.6017C4.42557 31.0566 4.7018 31.47 5.05003 31.8183L8.18336 34.9499C8.53158 35.2981 8.94498 35.5744 9.39995 35.7628C9.85493 35.9513 10.3426 36.0483 10.835 36.0483C11.3275 36.0483 11.8151 35.9513 12.2701 35.7628C12.7251 35.5744 13.1385 35.2981 13.4867 34.9499L22.1867 26.2499H30C30.3314 26.2496 30.6492 26.1177 30.8834 25.8833L34.1167 22.6516C34.4649 22.3034 34.7411 21.89 34.9296 21.435C35.1181 20.98 35.2151 20.4924 35.2151 19.9999C35.2151 19.5075 35.1181 19.0198 34.9296 18.5648C34.7411 18.1099 34.4649 17.6965 34.1167 17.3483L22.65 5.88325C21.9468 5.18049 20.9934 4.78572 19.9992 4.78572C19.005 4.78572 18.0516 5.18049 17.3484 5.88325L14.115 9.11658C13.8805 9.35078 13.7487 9.66851 13.7484 9.99992M19.115 7.65159C19.3494 7.4175 19.6671 7.28602 19.9984 7.28602C20.3296 7.28602 20.6473 7.4175 20.8817 7.65159L32.3467 19.1166C32.5808 19.351 32.7123 19.6687 32.7123 19.9999C32.7123 20.3312 32.5808 20.6489 32.3467 20.8833L29.9967 23.2333L16.7667 9.99992L19.115 7.65159ZM16.2484 13.0183L26.9817 23.7499H22.1817L16.2484 17.8166V13.0183ZM15 20.0999L19.9 24.9999L11.7167 33.1816C11.4823 33.4157 11.1646 33.5472 10.8334 33.5472C10.5021 33.5472 10.1844 33.4157 9.95003 33.1816L6.81669 30.0499C6.58261 29.8155 6.45113 29.4978 6.45113 29.1666C6.45113 28.8353 6.58261 28.5176 6.81669 28.2833L15 20.0999ZM35 13.3333H36.6667C36.9982 13.3333 37.3162 13.2016 37.5506 12.9671C37.785 12.7327 37.9167 12.4148 37.9167 12.0833C37.9167 11.7517 37.785 11.4338 37.5506 11.1994C37.3162 10.9649 36.9982 10.8333 36.6667 10.8333H35C34.6685 10.8333 34.3506 10.9649 34.1161 11.1994C33.8817 11.4338 33.75 11.7517 33.75 12.0833C33.75 12.4148 33.8817 12.7327 34.1161 12.9671C34.3506 13.2016 34.6685 13.3333 35 13.3333Z" fill="black"/>
</svg>
