<svg width="36" height="36" viewBox="0 0 36 36" fill="none" xmlns="http://www.w3.org/2000/svg">
<path d="M12.4755 4.88861C12.3253 4.71518 12.1258 4.59181 11.9035 4.53502C11.6813 4.47823 11.4469 4.49074 11.232 4.57088C11.0171 4.65101 10.8318 4.79494 10.7009 4.98336C10.5701 5.17179 10.5 5.39571 10.5 5.62511V15.4591C10.0375 14.4904 9.46468 13.5784 8.793 12.7411C8.085 11.8756 7.4205 11.3386 6.9015 11.0086C6.69536 10.8751 6.47863 10.7587 6.2535 10.6606C6.16085 10.6204 6.06623 10.5848 5.97 10.5541L5.943 10.5451L5.931 10.5421H5.9265L5.9235 10.5406H5.9205C5.75371 10.4952 5.57871 10.4888 5.40907 10.522C5.23943 10.5552 5.07971 10.627 4.94232 10.7319C4.80493 10.8368 4.69356 10.972 4.61685 11.1269C4.54014 11.2818 4.50015 11.4523 4.5 11.6251V26.6251C4.5 27.918 5.01361 29.158 5.92785 30.0723C6.84209 30.9865 8.08207 31.5001 9.375 31.5001H26.625C27.9179 31.5001 29.1579 30.9865 30.0721 30.0723C30.9864 29.158 31.5 27.918 31.5 26.6251V11.6251C31.5001 11.4521 31.4603 11.2815 31.3837 11.1264C31.307 10.9713 31.1957 10.8359 31.0583 10.7309C30.9209 10.6258 30.7611 10.5539 30.5913 10.5206C30.4215 10.4873 30.2464 10.4937 30.0795 10.5391H30.0765L30.0735 10.5406L30.069 10.5421L30.057 10.5451L30.03 10.5541C29.9326 10.5827 29.8373 10.6183 29.745 10.6606C29.5209 10.7589 29.3052 10.8753 29.1 11.0086C28.5795 11.3386 27.915 11.8756 27.207 12.7411C26.5353 13.5784 25.9625 14.4904 25.5 15.4591V5.62511C25.5 5.39571 25.4299 5.17179 25.2991 4.98336C25.1682 4.79494 24.9829 4.65101 24.768 4.57088C24.5531 4.49074 24.3187 4.47823 24.0965 4.53502C23.8742 4.59181 23.6747 4.71518 23.5245 4.88861L23.523 4.89161L23.5185 4.89611L23.505 4.91111L23.4585 4.96661L23.289 5.17211C23.145 5.34911 22.9395 5.60711 22.6905 5.93861C22.0134 6.84228 21.3792 7.77732 20.79 8.74061C19.6837 10.535 18.7496 12.4299 18 14.4001C17.2504 12.4299 16.3163 10.535 15.21 8.74061C14.6208 7.77783 13.9866 6.8433 13.3095 5.94011C13.061 5.61028 12.8049 5.28619 12.5415 4.96811L12.495 4.91261L12.4815 4.89761L12.477 4.89311L12.4755 4.88861Z" fill="url(#paint0_linear_380_1930)"/>
<circle cx="22" cy="18" r="3" fill="black"/>
<circle cx="14" cy="18" r="3" fill="black"/>
<circle cx="15" cy="17" r="1" fill="white"/>
<circle cx="21" cy="17" r="1" fill="white"/>
<circle cx="13.5" cy="18.5" r="0.5" fill="white"/>
<circle cx="22.5" cy="18.5" r="0.5" fill="white"/>
<defs>
<linearGradient id="paint0_linear_380_1930" x1="18" y1="4.5" x2="18" y2="31.5001" gradientUnits="userSpaceOnUse">
<stop stop-color="#D3FF8E"/>
<stop offset="1" stop-color="#A1C766"/>
</linearGradient>
</defs>
</svg>
