<svg width="40" height="40" viewBox="0 0 40 40" fill="none" xmlns="http://www.w3.org/2000/svg">
<path fill-rule="evenodd" clip-rule="evenodd" d="M25 1.67504C20.9167 1.47671 18.0625 4.91837 18.8942 8.89421L18.9559 9.18337C19.095 9.82254 19.6159 10.4067 20.4 10.445C24.4834 10.6434 27.3375 7.20087 26.5059 3.22587L26.4442 2.93587C26.3042 2.29754 25.7834 1.71337 25 1.67504ZM36.5384 5.20254C36.8959 5.31456 37.2237 5.5055 37.4975 5.76125C37.7712 6.017 37.9841 6.33102 38.1201 6.68009C38.2562 7.02916 38.3121 7.40435 38.2837 7.77793C38.2553 8.15151 38.1432 8.51392 37.9559 8.83837L37.7309 9.22754C36.1392 11.9842 32.7025 13.3234 29.6642 12.3725L29.2359 12.2384C28.8784 12.1263 28.5507 11.9353 28.277 11.6795C28.0033 11.4237 27.7906 11.1096 27.6546 10.7606C27.5186 10.4115 27.4628 10.0364 27.4913 9.66283C27.5197 9.28929 27.6318 8.92693 27.8192 8.60254L28.0434 8.21337C29.635 5.45671 33.0717 4.11754 36.11 5.06837L36.5384 5.20254ZM24.8667 15.7334C27.7375 13.3017 32.0875 13.9917 34.1475 17.1184L34.2975 17.3475C34.6517 17.8959 34.6725 18.6934 34.0509 19.2192C31.18 21.6509 26.8309 20.9609 24.77 17.8342L24.62 17.605C24.265 17.0567 24.245 16.2592 24.8667 15.7334ZM17.3584 21.4384C20.4392 18.7342 25.0725 19.2559 27.2 22.6384L27.3534 22.8834C27.72 23.4784 27.6792 24.2792 27.0767 24.8084C23.9959 27.5134 19.3625 26.9917 17.235 23.6084L17.0817 23.3634C16.715 22.7684 16.7559 21.9675 17.3584 21.4384ZM15.4075 6.73921C14.8625 6.14171 14.0559 6.11004 13.4534 6.42087L13.1734 6.56671C9.36169 8.57254 8.47752 13.2267 11.3967 16.43C11.9417 17.0275 12.7492 17.0592 13.3509 16.7484L13.6317 16.6017C17.4434 14.5967 18.3275 9.94171 15.4075 6.73921ZM6.30836 13.275C10.1567 15.4184 10.8084 20.19 7.78169 23.355L7.55836 23.5875C7.08086 24.0784 6.29836 24.3067 5.58586 23.9092C1.73752 21.765 1.08586 16.9942 4.11252 13.8292L4.33586 13.5975C4.81252 13.1059 5.59502 12.8775 6.30752 13.275M21.5459 29.3792C19.1667 25.7034 14.3734 25.235 11.3984 28.4834C10.8475 29.085 10.8884 29.8992 11.2559 30.4767C11.3086 30.56 11.3667 30.6503 11.43 30.7475C13.81 34.4242 18.6025 34.8925 21.5784 31.6442C22.1284 31.0425 22.0875 30.2275 21.72 29.6509C21.6672 29.5675 21.6092 29.4764 21.5459 29.3792ZM25.0575 13.9109C25.2426 13.794 25.4028 13.6418 25.529 13.463C25.6553 13.2842 25.7451 13.0823 25.7933 12.8688C25.8415 12.6553 25.8472 12.4344 25.81 12.2187C25.7729 12.003 25.6936 11.7968 25.5767 11.6117C25.4598 11.4267 25.3076 11.2664 25.1288 11.1402C24.95 11.0139 24.7481 10.9242 24.5346 10.8759C24.3211 10.8277 24.1002 10.8221 23.8845 10.8592C23.6688 10.8964 23.4626 10.9757 23.2775 11.0925C18.6203 14.0397 14.4348 17.6731 10.8625 21.87C7.52586 25.7809 5.25836 29.53 3.82252 32.3084C3.25432 33.4027 2.7322 34.5204 2.25752 35.6584C2.0792 36.0926 1.91275 36.5317 1.75836 36.975C1.45336 37.8434 1.93336 38.79 2.80752 39.0817C3.68002 39.3725 4.61419 38.8967 4.92086 38.0292C5.04974 37.6609 5.18863 37.295 5.33752 36.9317C5.64002 36.2 6.11252 35.1367 6.78336 33.8384C8.61002 30.3296 10.8292 27.0397 13.3984 24.0317C16.7533 20.0896 20.6843 16.6766 25.0584 13.9084" fill="#FFDE72"/>
</svg>
