<svg width="40" height="40" viewBox="0 0 40 40" fill="none" xmlns="http://www.w3.org/2000/svg">
<path d="M22.2909 3.63623C13.0363 3.38168 5.45451 10.818 5.45451 19.9999H2.19997C1.38178 19.9999 0.981785 20.9817 1.5636 21.5453L6.63633 26.6362C6.99997 26.9999 7.5636 26.9999 7.92724 26.6362L13 21.5453C13.1256 21.4171 13.2105 21.2546 13.2439 21.0783C13.2774 20.902 13.2579 20.7197 13.1879 20.5544C13.1179 20.3891 13.0005 20.2483 12.8506 20.1496C12.7007 20.0509 12.5249 19.9988 12.3454 19.9999H9.09088C9.09088 12.909 14.8727 7.18168 22 7.27259C28.7636 7.3635 34.4545 13.0544 34.5454 19.818C34.6363 26.9271 28.9091 32.7271 21.8181 32.7271C18.8909 32.7271 16.1818 31.7271 14.0363 30.0362C13.6881 29.7619 13.2511 29.6251 12.8086 29.6519C12.3661 29.6788 11.9489 29.8673 11.6363 30.1817C10.8727 30.9453 10.9272 32.2362 11.7818 32.8908C14.6385 35.1495 18.1763 36.3737 21.8181 36.3635C31 36.3635 38.4363 28.7817 38.1818 19.5271C37.9454 10.9999 30.8181 3.87259 22.2909 3.63623ZM21.3636 12.7271C20.6181 12.7271 20 13.3453 20 14.0908V20.7817C20 21.418 20.3454 22.018 20.8909 22.3453L26.5636 25.709C27.2181 26.0908 28.0545 25.8726 28.4363 25.2362C28.8181 24.5817 28.6 23.7453 27.9636 23.3635L22.7272 20.2544V14.0726C22.7272 13.3453 22.1091 12.7271 21.3636 12.7271Z" fill="black"/>
</svg>
