<svg width="40" height="40" viewBox="0 0 40 40" fill="none" xmlns="http://www.w3.org/2000/svg">
<g clip-path="url(#clip0_380_2112)">
<path d="M20 39.1668C17.3806 39.1668 14.9049 38.6634 12.573 37.6565C10.241 36.6496 8.20487 35.276 6.46454 33.5357C4.72421 31.7953 3.3506 29.7592 2.34371 27.4272C1.33682 25.0953 0.833374 22.6196 0.833374 20.0002C0.833374 17.3488 1.33682 14.8654 2.34371 12.5501C3.3506 10.2347 4.72421 8.20627 6.46454 6.46466C8.20487 4.72305 10.241 3.34944 12.573 2.34383C14.9049 1.33822 17.3806 0.834774 20 0.833496C22.6514 0.833496 25.1354 1.33694 27.452 2.34383C29.7686 3.35072 31.7965 4.72433 33.5355 6.46466C35.2746 8.205 36.6482 10.2335 37.6564 12.5501C38.6645 14.8667 39.168 17.3501 39.1667 20.0002C39.1667 22.6196 38.6633 25.0953 37.6564 27.4272C36.6495 29.7592 35.2759 31.796 33.5355 33.5376C31.7952 35.2792 29.7667 36.6528 27.4501 37.6584C25.1335 38.664 22.6501 39.1668 20 39.1668ZM20 35.2377C20.8306 34.0877 21.5493 32.8897 22.1563 31.6439C22.7632 30.3981 23.2584 29.0724 23.6417 27.6668H16.3584C16.7417 29.0724 17.2368 30.3981 17.8438 31.6439C18.4507 32.8897 19.1695 34.0877 20 35.2377ZM15.0167 34.471C14.4417 33.4168 13.9389 32.3224 13.5083 31.1877C13.0777 30.0531 12.718 28.8794 12.4292 27.6668H6.77504C7.70143 29.2641 8.85973 30.6536 10.25 31.8356C11.6402 33.0175 13.2291 33.896 15.0167 34.471ZM24.9834 34.471C26.7723 33.896 28.3618 33.0175 29.752 31.8356C31.1423 30.6536 32.2999 29.2641 33.225 27.6668H27.5709C27.2834 28.8807 26.9243 30.055 26.4937 31.1897C26.0631 32.3243 25.5596 33.4181 24.9834 34.471ZM5.14587 23.8335H11.6625C11.5667 23.1946 11.4952 22.564 11.4479 21.9417C11.4006 21.3195 11.3763 20.6723 11.375 20.0002C11.3738 19.3281 11.398 18.6815 11.4479 18.0605C11.4977 17.4395 11.5693 16.8083 11.6625 16.1668H5.14587C4.98615 16.8057 4.86668 17.4369 4.78746 18.0605C4.70824 18.6841 4.66798 19.3306 4.66671 20.0002C4.66543 20.6697 4.70568 21.3169 4.78746 21.9417C4.86924 22.5666 4.98871 23.1972 5.14587 23.8335ZM15.4959 23.8335H24.5042C24.6 23.1946 24.6722 22.564 24.7208 21.9417C24.7693 21.3195 24.793 20.6723 24.7917 20.0002C24.7904 19.3281 24.7661 18.6815 24.7189 18.0605C24.6716 17.4395 24.6 16.8083 24.5042 16.1668H15.4959C15.4 16.8057 15.3285 17.4369 15.2812 18.0605C15.2339 18.6841 15.2097 19.3306 15.2084 20.0002C15.2071 20.6697 15.2314 21.3169 15.2812 21.9417C15.331 22.5666 15.4026 23.1972 15.4959 23.8335ZM28.3375 23.8335H34.8542C35.0139 23.1946 35.134 22.564 35.2145 21.9417C35.295 21.3195 35.3346 20.6723 35.3334 20.0002C35.3321 19.3281 35.2925 18.6815 35.2145 18.0605C35.1366 17.4395 35.0165 16.8083 34.8542 16.1668H28.3375C28.4334 16.8057 28.5056 17.4369 28.5541 18.0605C28.6027 18.6841 28.6263 19.3306 28.625 20.0002C28.6238 20.6697 28.5995 21.3169 28.5522 21.9417C28.5049 22.5666 28.4334 23.1972 28.3375 23.8335ZM27.5709 12.3335H33.225C32.2986 10.7363 31.141 9.34669 29.752 8.16475C28.3631 6.9828 26.7735 6.10433 24.9834 5.52933C25.5584 6.5835 26.0618 7.67791 26.4937 8.81258C26.9256 9.94725 27.2846 11.1209 27.5709 12.3335ZM16.3584 12.3335H23.6417C23.2584 10.9279 22.7632 9.60225 22.1563 8.35641C21.5493 7.11058 20.8306 5.91266 20 4.76266C19.1695 5.91266 18.4507 7.11058 17.8438 8.35641C17.2368 9.60225 16.7417 10.9279 16.3584 12.3335ZM6.77504 12.3335H12.4292C12.7167 11.1196 13.0764 9.94533 13.5083 8.81066C13.9402 7.676 14.443 6.58222 15.0167 5.52933C13.2278 6.10433 11.6383 6.9828 10.248 8.16475C8.85782 9.34669 7.70015 10.7363 6.77504 12.3335Z" fill="#222222"/>
</g>
<defs>
<clipPath id="clip0_380_2112">
<rect width="40" height="40" fill="white"/>
</clipPath>
</defs>
</svg>
