<svg width="40" height="40" viewBox="0 0 40 40" fill="none" xmlns="http://www.w3.org/2000/svg">
<path fill-rule="evenodd" clip-rule="evenodd" d="M18.0392 35.6864C18.0392 35.1663 17.8326 34.6676 17.4649 34.2999C17.0972 33.9322 16.5984 33.7256 16.0784 33.7256H6.27447V6.2746H16.0784C16.5984 6.2746 17.0972 6.06801 17.4649 5.7003C17.8326 5.33258 18.0392 4.83384 18.0392 4.31381C18.0392 3.79378 17.8326 3.29505 17.4649 2.92733C17.0972 2.55961 16.5984 2.35303 16.0784 2.35303H6.27447C5.23441 2.35303 4.23694 2.76619 3.50151 3.50163C2.76607 4.23706 2.35291 5.23453 2.35291 6.2746V33.7256C2.35291 34.7656 2.76607 35.7631 3.50151 36.4985C4.23694 37.234 5.23441 37.6471 6.27447 37.6471H16.0784C16.5984 37.6471 17.0972 37.4406 17.4649 37.0728C17.8326 36.7051 18.0392 36.2064 18.0392 35.6864Z" fill="#222222"/>
<path d="M39.0475 21.3734C39.4055 21.0084 39.6067 20.518 39.6083 20.0068V19.995C39.6067 19.477 39.4001 18.9808 39.0338 18.6146L31.1907 10.7715C31.0098 10.5842 30.7934 10.4348 30.5542 10.332C30.315 10.2293 30.0577 10.1752 29.7973 10.1729C29.537 10.1707 29.2788 10.2203 29.0378 10.3189C28.7969 10.4175 28.5779 10.563 28.3938 10.7472C28.2097 10.9313 28.0641 11.1502 27.9655 11.3912C27.8669 11.6321 27.8173 11.8903 27.8196 12.1507C27.8219 12.411 27.876 12.6683 27.9787 12.9075C28.0815 13.1468 28.2309 13.3631 28.4181 13.544L32.9142 18.0401H14.1181C13.5981 18.0401 13.0994 18.2467 12.7316 18.6144C12.3639 18.9821 12.1573 19.4808 12.1573 20.0009C12.1573 20.5209 12.3639 21.0196 12.7316 21.3874C13.0994 21.7551 13.5981 21.9617 14.1181 21.9617H32.9142L28.4181 26.4577C28.061 26.8275 27.8633 27.3228 27.8678 27.8369C27.8723 28.3511 28.0785 28.8428 28.442 29.2064C28.8056 29.5699 29.2974 29.7762 29.8115 29.7806C30.3256 29.7851 30.8209 29.5875 31.1907 29.2303L39.0338 21.3871L39.0475 21.3734Z" fill="#222222"/>
</svg>
