<svg width="30" height="30" viewBox="0 0 30 30" fill="none" xmlns="http://www.w3.org/2000/svg">
<path fill-rule="evenodd" clip-rule="evenodd" d="M18.1644 22.9149C17.9509 23.1243 17.7129 23.3066 17.4392 23.4216C16.669 23.7486 15.7498 23.5518 14.9558 23.4446C9.63287 22.7235 5.88609 20.9494 4.42922 17.7213C3.2661 15.1432 3.64291 12.3444 5.06839 10.4374C6.38891 8.67104 8.58131 7.72184 11.0626 8.40036C12.2989 6.14367 14.5055 5.22531 16.6931 5.50314C19.0544 5.8025 21.3288 7.47609 22.3752 10.1034C22.5804 10.6186 22.7222 11.1526 22.8006 11.7053C23.095 11.8076 23.3766 11.9431 23.6454 12.1117C25.0342 12.9875 25.9479 14.6784 25.8385 16.5853C25.699 19.0182 23.7387 20.9883 20.7676 22.6158C20.2588 22.8952 19.7063 23.2299 19.105 23.2094C18.7707 23.1973 18.4554 23.0709 18.1644 22.9149ZM6.40439 16.8299C5.55409 14.9442 5.8677 12.9878 6.80419 11.7349C7.70287 10.5321 9.20002 9.92131 11.0576 10.6842C11.7066 10.9507 12.4508 10.6339 12.7095 9.98382C13.4515 8.11715 14.9306 7.46401 16.4198 7.65293C17.9726 7.85041 19.5977 8.98293 20.3623 10.9048C20.4552 11.1353 20.529 11.3748 20.5836 11.6231C20.1976 11.7286 19.8296 11.8913 19.4918 12.1058C18.1818 11.1445 16.6252 11.1379 15.3496 11.8226C13.9029 12.5981 12.873 14.2219 12.8483 16.1322C12.8246 18.0883 13.9913 19.8278 15.9267 21.386C15.7068 21.3622 15.4778 21.3288 15.247 21.2978C10.0825 20.5982 7.37208 18.9749 6.40439 16.8299ZM15.016 16.159C15.0293 15.0084 15.6475 14.1219 16.3737 13.731C17.0453 13.3719 17.8508 13.3976 18.5697 14.1772C18.6769 14.2934 18.806 14.3871 18.9496 14.4531C19.0933 14.519 19.2485 14.5559 19.4065 14.5614C19.5644 14.567 19.7219 14.5412 19.8699 14.4855C20.0178 14.4299 20.1532 14.3455 20.2683 14.2372C21.041 13.5083 21.8462 13.5395 22.4895 13.9447C23.1881 14.3847 23.7409 15.3135 23.6747 16.4616C23.6037 17.7078 22.5581 19.1653 19.727 20.7152C19.5472 20.8138 19.3693 20.9175 19.182 21.0018C19.0008 20.9037 18.8304 20.7887 18.6574 20.6784C15.9421 18.9345 15 17.4073 15.0158 16.1579L15.016 16.159Z" fill="white"/>
</svg>
