<svg width="40" height="40" viewBox="0 0 40 40" fill="none" xmlns="http://www.w3.org/2000/svg">
<path d="M11.3782 3.04482C11.0811 3.34134 10.8454 3.69354 10.6845 4.08128C10.5237 4.46901 10.4409 4.88466 10.4409 5.30443C10.4409 5.7242 10.5237 6.13985 10.6845 6.52759C10.8454 6.91532 11.0811 7.26753 11.3782 7.56405L23.8141 19.9999L11.3782 32.4358C10.779 33.0351 10.4423 33.8479 10.4423 34.6955C10.4423 35.543 10.779 36.3558 11.3782 36.9551C11.9775 37.5544 12.7903 37.891 13.6379 37.891C14.4854 37.891 15.2982 37.5544 15.8975 36.9551L30.609 22.2435C30.9061 21.947 31.1419 21.5948 31.3027 21.2071C31.4635 20.8193 31.5463 20.4037 31.5463 19.9839C31.5463 19.5641 31.4635 19.1485 31.3027 18.7608C31.1419 18.373 30.9061 18.0208 30.609 17.7243L15.8975 3.01277C14.6795 1.79482 12.6282 1.79482 11.3782 3.04482Z" fill="#222222"/>
</svg>
