<svg width="46" height="46" viewBox="0 0 46 46" fill="none" xmlns="http://www.w3.org/2000/svg">
<path d="M11 28H35V42C35 44.2091 33.2091 46 31 46H15C12.7909 46 11 44.2091 11 42V28Z" fill="#93B55D"/>
<path d="M23 0C21.1435 0 19.363 0.731645 18.0503 2.03398C16.7375 3.33632 16 5.10266 16 6.94444C16 7.3128 16.1475 7.66607 16.4101 7.92654C16.6726 8.187 17.0287 8.33333 17.4 8.33333C17.7713 8.33333 18.1274 8.187 18.3899 7.92654C18.6525 7.66607 18.8 7.3128 18.8 6.94444C18.8 4.64167 20.6788 2.77778 23 2.77778C25.3212 2.77778 27.2 4.64167 27.2 6.94444C27.2 8.07778 26.9214 8.74167 26.5868 9.20694C26.22 9.71389 25.7118 10.0931 25.0076 10.575L24.8452 10.6833C24.2194 11.1083 23.413 11.6542 22.7886 12.4153C22.0508 13.3153 21.6 14.4528 21.6 15.9722V16.6667C21.6 17.035 21.7475 17.3883 22.0101 17.6488C22.2726 17.9092 22.6287 18.0556 23 18.0556C23.3713 18.0556 23.7274 17.9092 23.9899 17.6488C24.2525 17.3883 24.4 17.035 24.4 16.6667V15.9722C24.4 15.0611 24.6492 14.55 24.96 14.1681C25.3198 13.7319 25.8042 13.4014 26.5196 12.9139L26.5938 12.8625C27.2882 12.3903 28.18 11.7708 28.8618 10.8236C29.58 9.83472 30 8.5875 30 6.94444C30 5.10266 29.2625 3.33632 27.9497 2.03398C26.637 0.731645 24.8565 0 23 0ZM23 23.9583C23.4641 23.9583 23.9092 23.7754 24.2374 23.4498C24.5656 23.1243 24.75 22.6827 24.75 22.2222C24.75 21.7618 24.5656 21.3202 24.2374 20.9946C23.9092 20.669 23.4641 20.4861 23 20.4861C22.5359 20.4861 22.0908 20.669 21.7626 20.9946C21.4344 21.3202 21.25 21.7618 21.25 22.2222C21.25 22.6827 21.4344 23.1243 21.7626 23.4498C22.0908 23.7754 22.5359 23.9583 23 23.9583Z" fill="#93B55D"/>
</svg>
