<svg width="24" height="24" viewBox="0 0 24 24" fill="none" xmlns="http://www.w3.org/2000/svg">
<path d="M15.1391 18.277V19.0616C15.1391 19.894 14.8084 20.6922 14.2198 21.2808C13.6313 21.8694 12.833 22.2 12.0006 22.2C11.1682 22.2 10.37 21.8694 9.78139 21.2808C9.19281 20.6922 8.86215 19.894 8.86215 19.0616V18.277M20.4195 16.6798C19.1602 15.1385 18.2712 14.3539 18.2712 10.1047C18.2712 6.21351 16.2841 4.82719 14.6487 4.1539C14.4314 4.06465 14.227 3.85966 14.1608 3.63654C13.8739 2.66018 13.0697 1.80005 12.0006 1.80005C10.9316 1.80005 10.1269 2.66067 9.84292 3.63752C9.77672 3.8631 9.57223 4.06465 9.35499 4.1539C7.71759 4.82817 5.73252 6.20959 5.73252 10.1047C5.73006 14.3539 4.841 15.1385 3.58169 16.6798C3.05992 17.3183 3.51696 18.277 4.42956 18.277H19.5766C20.4843 18.277 20.9384 17.3153 20.4195 16.6798Z" stroke="#8E8E8E" stroke-width="1.6" stroke-linecap="round" stroke-linejoin="round"/>
</svg>
