<svg width="40" height="40" viewBox="0 0 40 40" fill="none" xmlns="http://www.w3.org/2000/svg">
<path d="M9.9749 23.5763C10.9696 23.5763 11.8145 23.2288 12.5095 22.5338C13.2045 21.8388 13.552 20.9939 13.552 19.9992C13.552 19.0045 13.2045 18.1596 12.5095 17.4646C11.8145 16.7696 10.9696 16.4221 9.9749 16.4221C8.98017 16.4221 8.1353 16.7696 7.44028 17.4646C6.74527 18.1596 6.39776 19.0045 6.39776 19.9992C6.39776 20.9939 6.74527 21.8388 7.44028 22.5338C8.1353 23.2288 8.98017 23.5763 9.9749 23.5763ZM9.9749 29.1668C7.39119 29.1668 5.21701 28.2845 3.45233 26.5198C1.69025 24.7564 0.809204 22.5829 0.809204 19.9992C0.809204 17.4155 1.69154 15.2413 3.45621 13.4766C5.22088 11.712 7.39378 10.8309 9.9749 10.8335C12.1685 10.8335 14.0681 11.4523 15.6739 12.6899C17.2797 13.9275 18.3086 15.3957 18.7608 17.0945H36.2957L39.1908 19.9895L34.3851 25.0956L30.8428 22.4234L27.3025 25.2176L24.2854 22.9078H18.7627C18.3028 24.6376 17.2642 26.1135 15.6468 27.3356C14.0294 28.5577 12.1388 29.1675 9.9749 29.1649" fill="#222222"/>
</svg>
