<svg width="16" height="16" viewBox="0 0 16 16" fill="none" xmlns="http://www.w3.org/2000/svg">
<path d="M8.00005 15.5557C6.27561 15.5557 4.80746 14.9613 3.59561 13.7726C2.38376 12.5838 1.77783 11.1367 1.77783 9.43122C1.77783 8.61759 1.94228 7.83893 2.27117 7.09522C2.60005 6.35152 3.04065 5.68781 3.59294 5.10411L8.00005 0.785889L12.4072 5.10411C12.9601 5.68781 13.4006 6.35152 13.7289 7.09522C14.0572 7.83893 14.2217 8.61907 14.2223 9.43567C14.2223 11.1435 13.6164 12.5906 12.4045 13.777C11.1926 14.9634 9.7245 15.5563 8.00005 15.5557Z" fill="url(#paint0_linear_205_467)"/>
<defs>
<linearGradient id="paint0_linear_205_467" x1="8.00005" y1="0.785889" x2="8.00005" y2="15.5557" gradientUnits="userSpaceOnUse">
<stop offset="0.4375" stop-color="#EEEEEE" stop-opacity="0.8"/>
<stop offset="0.9" stop-color="#2B93FF"/>
</linearGradient>
</defs>
</svg>
