<svg width="29" height="29" viewBox="0 0 29 29" fill="none" xmlns="http://www.w3.org/2000/svg">
<g clip-path="url(#clip0_16_610)">
<path d="M27.5383 7.89244C27.551 7.69374 27.4903 7.49728 27.3677 7.34038C27.2451 7.18348 27.0692 7.07705 26.8733 7.04131C21.6928 6.09824 17.3085 7.17051 15.1432 9.9212C13.7125 11.7398 13.4215 14.1262 14.3134 16.5462C13.5491 17.2579 12.9478 18.1266 12.5508 19.0925L11.1128 17.245C12.1032 15.6956 12.2837 13.9762 11.5998 12.4454C10.5389 10.0854 7.6119 8.53089 3.77096 8.28645C3.57225 8.27374 3.3758 8.33445 3.21889 8.45703C3.06199 8.57962 2.95557 8.75555 2.91982 8.95142C2.22679 12.7373 3.02807 15.9535 5.06124 17.5539C5.73166 18.0858 6.53585 18.4225 7.3853 18.5268C8.21103 18.6179 9.04666 18.5222 9.83045 18.2469L12.0412 21.0765L11.6863 23.9666C11.66 24.1804 11.7198 24.396 11.8525 24.5658C11.9851 24.7356 12.1798 24.8458 12.3937 24.872C12.6076 24.8983 12.8232 24.8385 12.993 24.7058C13.1628 24.5732 13.2729 24.3785 13.2992 24.1646L13.6642 21.1918C13.818 19.9084 14.4076 18.7166 15.3343 17.8155C16.3049 18.485 17.4197 18.9163 18.5881 19.0746C19.7191 19.2171 20.8675 19.0444 21.9064 18.5754C25.099 17.1419 27.2041 13.1478 27.5383 7.89244ZM6.0622 16.277C4.63083 15.1506 4.02802 12.8265 4.39972 9.97425C7.2575 10.3006 9.3664 11.4508 10.113 13.1121C10.5029 13.9786 10.4671 14.9289 10.0276 15.8583L7.86902 13.0955C7.73434 12.9319 7.54109 12.8274 7.33047 12.8043C7.11985 12.7811 6.90852 12.8412 6.74156 12.9717C6.57459 13.1021 6.46518 13.2926 6.43667 13.5026C6.40816 13.7125 6.46279 13.9253 6.58892 14.0956L8.74745 16.8584C7.73935 17.06 6.80963 16.865 6.0622 16.277ZM21.24 17.0948C19.7888 17.7465 18.1934 17.614 16.6638 16.7376L22.7408 11.9888C22.9043 11.8542 23.0088 11.6609 23.0319 11.4503C23.0551 11.2397 22.995 11.0283 22.8646 10.8614C22.7341 10.6944 22.5436 10.585 22.3336 10.5565C22.1237 10.528 21.9109 10.5826 21.7406 10.7087L15.6636 15.4503C15.1802 13.7537 15.4367 12.1726 16.424 10.9237C18.1139 8.77769 21.6052 7.89455 25.8601 8.51829C25.433 12.7963 23.733 15.9745 21.24 17.0948Z" fill="white"/>
</g>
<defs>
<clipPath id="clip0_16_610">
<rect width="26" height="26" fill="white" transform="translate(3.1686) rotate(7)"/>
</clipPath>
</defs>
</svg>
