<svg width="40" height="40" viewBox="0 0 40 40" fill="none" xmlns="http://www.w3.org/2000/svg">
<path d="M11.5 10.128H17.1667M11.5 19.9998H28.5M11.5 25.6409H28.5M11.5 31.2819H17.1667M8.66671 38.3332H31.3334C32.0848 38.3332 32.8055 38.036 33.3368 37.5071C33.8682 36.9781 34.1667 36.2607 34.1667 35.5127V4.48702C34.1667 3.73897 33.8682 3.02156 33.3368 2.49261C32.8055 1.96366 32.0848 1.6665 31.3334 1.6665H8.66671C7.91526 1.6665 7.19459 1.96366 6.66324 2.49261C6.13188 3.02156 5.83337 3.73897 5.83337 4.48702V35.5127C5.83337 36.2607 6.13188 36.9781 6.66324 37.5071C7.19459 38.036 7.91526 38.3332 8.66671 38.3332Z" stroke="white" stroke-width="1.4" stroke-linecap="round" stroke-linejoin="round"/>
<path d="M28.5013 10.8346C28.8925 10.8346 29.2096 10.5189 29.2096 10.1294C29.2096 9.74001 28.8925 9.42432 28.5013 9.42432C28.1101 9.42432 27.793 9.74001 27.793 10.1294C27.793 10.5189 28.1101 10.8346 28.5013 10.8346Z" fill="white" stroke="white"/>
</svg>
