<svg width="40" height="40" viewBox="0 0 40 40" fill="none" xmlns="http://www.w3.org/2000/svg">
<path d="M32.0951 24.8547C30.5966 25.7656 28.8754 26.2447 27.1217 26.2391C25.6525 26.2275 24.1999 25.927 22.8467 25.3547C21.8037 26.8271 21.2456 28.5879 21.2498 30.3922V35C21.2502 35.1714 21.2153 35.341 21.1474 35.4983C21.0795 35.6556 20.9799 35.7973 20.8549 35.9145C20.7299 36.0317 20.5822 36.122 20.4208 36.1797C20.2595 36.2374 20.088 36.2614 19.917 36.25C19.5957 36.222 19.2969 36.0736 19.0804 35.8346C18.8639 35.5955 18.7458 35.2834 18.7498 34.961V33.0172L12.7154 26.9828C11.8184 27.3175 10.8697 27.4925 9.91231 27.5C8.59428 27.5034 7.3009 27.1428 6.17481 26.4578C2.77013 24.3891 0.937314 19.6281 1.292 13.7172C1.30986 13.4114 1.43939 13.1228 1.65599 12.9062C1.8726 12.6896 2.1612 12.5601 2.467 12.5422C8.37794 12.1938 13.1389 14.0203 15.2014 17.425C16.0117 18.7595 16.3655 20.3216 16.2092 21.875C16.1995 21.9954 16.1551 22.1103 16.0814 22.206C16.0078 22.3017 15.908 22.374 15.7941 22.4141C15.6802 22.4543 15.5572 22.4606 15.4398 22.4323C15.3224 22.404 15.2157 22.3423 15.1326 22.2547L12.1326 19.1141C11.8963 18.8896 11.5816 18.7662 11.2557 18.7704C10.9297 18.7746 10.6183 18.9059 10.3878 19.1364C10.1573 19.3669 10.0259 19.6783 10.0218 20.0043C10.0176 20.3302 10.1409 20.6449 10.3654 20.8813L18.7842 29.5141C18.7936 29.3922 18.8045 29.2703 18.817 29.15C19.0903 26.8324 20.113 24.6675 21.7295 22.9844L29.6342 14.6313C29.8687 14.3969 30.0006 14.079 30.0007 13.7474C30.0009 13.4159 29.8693 13.0978 29.635 12.8633C29.4006 12.6287 29.0827 12.4969 28.7511 12.4967C28.4196 12.4966 28.1016 12.6282 27.867 12.8625L20.2108 20.9594C20.1341 21.0406 20.0371 21.0997 19.9299 21.1307C19.8226 21.1617 19.7091 21.1635 19.6009 21.1357C19.4928 21.108 19.3941 21.0518 19.315 20.9729C19.236 20.8941 19.1795 20.7956 19.1514 20.6875C18.4108 17.9563 18.7373 15.2375 20.1514 12.9031C22.942 8.29689 29.4357 5.83126 37.5233 6.30626C37.8291 6.32412 38.1177 6.45365 38.3343 6.67026C38.5509 6.88686 38.6804 7.17546 38.6982 7.48126C39.167 15.5703 36.7014 22.0641 32.0951 24.8547Z" fill="black"/>
</svg>
