<svg width="40" height="40" viewBox="0 0 40 40" fill="none" xmlns="http://www.w3.org/2000/svg">
<path fill-rule="evenodd" clip-rule="evenodd" d="M7.44078 25.774C9.00358 24.2112 11.1232 23.3333 13.3333 23.3333H26.6667C28.8768 23.3333 30.9964 24.2112 32.5592 25.774C34.122 27.3368 35 29.4564 35 31.6666V34.9999C35 35.9204 34.2538 36.6666 33.3333 36.6666C32.4129 36.6666 31.6667 35.9204 31.6667 34.9999V31.6666C31.6667 30.3405 31.1399 29.0687 30.2022 28.1311C29.2645 27.1934 27.9927 26.6666 26.6667 26.6666H13.3333C12.0073 26.6666 10.7355 27.1934 9.7978 28.1311C8.86012 29.0687 8.33333 30.3405 8.33333 31.6666V34.9999C8.33333 35.9204 7.58714 36.6666 6.66667 36.6666C5.74619 36.6666 5 35.9204 5 34.9999V31.6666C5 29.4564 5.87797 27.3368 7.44078 25.774Z" fill="#222222"/>
<path fill-rule="evenodd" clip-rule="evenodd" d="M19.9998 6.66659C17.2384 6.66659 14.9998 8.90516 14.9998 11.6666C14.9998 14.428 17.2384 16.6666 19.9998 16.6666C22.7613 16.6666 24.9998 14.428 24.9998 11.6666C24.9998 8.90516 22.7613 6.66659 19.9998 6.66659ZM11.6665 11.6666C11.6665 7.06421 15.3975 3.33325 19.9998 3.33325C24.6022 3.33325 28.3332 7.06421 28.3332 11.6666C28.3332 16.269 24.6022 19.9999 19.9998 19.9999C15.3975 19.9999 11.6665 16.269 11.6665 11.6666Z" fill="#222222"/>
</svg>
