<svg width="40" height="40" viewBox="0 0 40 40" fill="none" xmlns="http://www.w3.org/2000/svg">
<path d="M39.996 2V6C39.996 9.71303 38.521 13.274 35.8955 15.8995C33.27 18.525 29.709 20 25.996 20H23.996V22H33.996V36C33.996 37.0609 33.5745 38.0783 32.8244 38.8284C32.0743 39.5786 31.0568 40 29.996 40H13.996C12.9351 40 11.9177 39.5786 11.1675 38.8284C10.4174 38.0783 9.99597 37.0609 9.99597 36V22H19.996V16C19.996 12.287 21.471 8.72602 24.0965 6.10051C26.722 3.475 30.2829 2 33.996 2H39.996ZM8.99597 4.91851e-06C11.3959 -0.0019397 13.7612 0.572772 15.8927 1.67575C18.0242 2.77873 19.8594 4.37769 21.244 6.338C19.1316 9.11565 17.9904 12.5104 17.996 16V18H16.996C13.0177 18 9.20242 16.4197 6.38937 13.6066C3.57632 10.7936 1.99597 6.97825 1.99597 3V4.91851e-06H8.99597Z" fill="#93B55D"/>
</svg>
