<svg width="40" height="40" viewBox="0 0 40 40" fill="none" xmlns="http://www.w3.org/2000/svg">
<path d="M34.1535 20.9516L36.5871 23.1187C37.0365 23.4937 37.3368 24.0173 37.4336 24.5945C37.5304 25.1718 37.4173 25.7646 37.1148 26.2657L34.1805 31.2782C33.9528 31.6619 33.6278 31.9786 33.2383 32.1962C32.8442 32.4142 32.4018 32.5299 31.9515 32.5327C31.6721 32.5344 31.3942 32.4926 31.1277 32.4089L28.013 31.3805C27.4675 31.7305 26.9003 32.0437 26.3117 32.32L25.6575 35.4778C25.5365 36.0586 25.2131 36.5776 24.7449 36.9422C24.2709 37.3133 23.6832 37.5092 23.0813 37.4968H17.0054C16.4035 37.5092 15.8158 37.3133 15.3417 36.9422C14.8746 36.5772 14.5522 36.0583 14.4318 35.4778L13.775 32.32C13.194 32.0399 12.6304 31.7253 12.0871 31.3778L8.96164 32.4089C8.69514 32.4926 8.41723 32.5344 8.13788 32.5327C7.68848 32.5295 7.24702 32.4138 6.85379 32.1962C6.46463 31.9794 6.13961 31.6636 5.91159 31.2809L2.8723 26.2657C2.55633 25.7601 2.4356 25.1566 2.53273 24.5683C2.62987 23.9801 2.9382 23.4475 3.39993 23.0703L5.83083 19.9987V19.0457L3.39724 16.8786C2.94784 16.5036 2.64757 15.9801 2.55079 15.4028C2.454 14.8256 2.5671 14.2327 2.86961 13.7317L5.90889 8.71912C6.13655 8.33542 6.4616 8.01872 6.8511 7.80114C7.24433 7.58355 7.68578 7.46786 8.13519 7.46464C8.41202 7.44718 8.68989 7.4726 8.95895 7.54002L12.0225 8.61682C12.5698 8.26686 13.137 7.95369 13.7238 7.67731L14.3807 4.51957C14.501 3.93909 14.8235 3.42014 15.2906 3.05511C15.7646 2.68401 16.3523 2.4881 16.9542 2.50056H22.979C23.5809 2.4881 24.1686 2.68401 24.6426 3.05511C25.1137 3.42392 25.4368 3.94348 25.5525 4.51957L26.2094 7.67731C26.7927 7.95548 27.3553 8.26955 27.8973 8.61952L31.0254 7.59116C31.3726 7.47823 31.7394 7.43857 32.1027 7.47472C32.466 7.51086 32.8178 7.62201 33.136 7.80114C33.5263 8.02189 33.8493 8.33955 34.0782 8.71643L37.1148 13.7317C37.435 14.233 37.5619 14.8337 37.4717 15.4217C37.3815 16.0096 37.0805 16.5447 36.6248 16.9271L34.1535 19.0322V20.9516Z" stroke="black" stroke-width="3"/>
<path d="M26.7282 19.9981C26.7282 21.783 26.0191 23.4948 24.757 24.757C23.4948 26.0191 21.783 26.7282 19.9981 26.7282C18.2132 26.7282 16.5014 26.0191 15.2393 24.757C13.9771 23.4948 13.2681 21.783 13.2681 19.9981C13.2681 18.2132 13.9771 16.5014 15.2393 15.2393C16.5014 13.9771 18.2132 13.2681 19.9981 13.2681C21.783 13.2681 23.4948 13.9771 24.757 15.2393C26.0191 16.5014 26.7282 18.2132 26.7282 19.9981Z" stroke="black" stroke-width="3"/>
</svg>
