<svg width="40" height="40" viewBox="0 0 40 40" fill="none" xmlns="http://www.w3.org/2000/svg">
<path d="M32.4074 23.5184C35.0287 20.9498 37.6852 17.8711 37.6852 13.8424C37.6852 11.2762 36.6658 8.81511 34.8512 7.00052C33.0366 5.18593 30.5755 4.1665 28.0093 4.1665C24.913 4.1665 22.7315 5.04613 20.0926 7.68502C17.4537 5.04613 15.2722 4.1665 12.1759 4.1665C9.60971 4.1665 7.1486 5.18593 5.33401 7.00052C3.51943 8.81511 2.5 11.2762 2.5 13.8424C2.5 17.8887 5.13889 20.9674 7.77778 23.5184L20.0926 35.8332L32.4074 23.5184Z" stroke="white" stroke-width="1.3" stroke-linecap="round" stroke-linejoin="round"/>
<path d="M20.0919 7.68506L14.8845 12.8925C14.527 13.2473 14.2433 13.6694 14.0497 14.1344C13.8561 14.5994 13.7565 15.0981 13.7565 15.6017C13.7565 16.1054 13.8561 16.6041 14.0497 17.0691C14.2433 17.5341 14.527 17.9561 14.8845 18.311C16.3271 19.7536 18.6317 19.8064 20.1622 18.4341L23.8039 15.0915C24.7167 14.2633 25.9051 13.8044 27.1377 13.8044C28.3703 13.8044 29.5587 14.2633 30.4715 15.0915L35.6789 19.7712M30.6474 25.2777L27.1289 21.7591M25.3697 30.5554L21.8511 27.0369" stroke="white" stroke-width="1.3" stroke-linecap="round" stroke-linejoin="round"/>
</svg>
