<svg width="12" height="12" viewBox="0 0 12 12" fill="none" xmlns="http://www.w3.org/2000/svg">
<path d="M9.5001 3.5L8.8286 4.1715M8.8286 4.1715C8.07844 3.42134 7.061 2.9999 6.0001 2.9999C4.93921 2.9999 3.92177 3.42134 3.1716 4.1715C2.42144 4.92167 2 5.93911 2 7C2 8.06089 2.42144 9.07833 3.1716 9.8285C3.92177 10.5787 4.93921 11.0001 6.0001 11.0001C7.061 11.0001 8.07844 10.5787 8.8286 9.8285C9.57877 9.07833 10.0002 8.06089 10.0002 7C10.0002 5.93911 9.57877 4.92167 8.8286 4.1715ZM6.0001 5V7M4.5001 1.5H7.5001" stroke="#728D48" stroke-width="1.3" stroke-linecap="round" stroke-linejoin="round"/>
</svg>
