<svg width="40" height="40" viewBox="0 0 40 40" fill="none" xmlns="http://www.w3.org/2000/svg">
<path d="M20 35.0001C18.8333 35.0001 17.8472 34.5973 17.0416 33.7917C16.2361 32.9862 15.8333 32.0001 15.8333 30.8334C15.8333 29.6667 16.2361 28.6806 17.0416 27.8751C17.8472 27.0695 18.8333 26.6667 20 26.6667C21.1666 26.6667 22.1527 27.0695 22.9583 27.8751C23.7638 28.6806 24.1666 29.6667 24.1666 30.8334C24.1666 32.0001 23.7638 32.9862 22.9583 33.7917C22.1527 34.5973 21.1666 35.0001 20 35.0001ZM20 16.6667C22.0833 16.6667 24.0627 17.0001 25.9383 17.6667C27.8138 18.3334 29.515 19.2501 31.0416 20.4167C31.5972 20.8334 31.8822 21.3823 31.8966 22.0634C31.9111 22.7445 31.6677 23.3345 31.1666 23.8334C30.6944 24.3056 30.1111 24.549 29.4166 24.5634C28.7222 24.5779 28.0972 24.3901 27.5416 24.0001C26.4861 23.2779 25.3194 22.7084 24.0416 22.2917C22.7638 21.8751 21.4166 21.6667 20 21.6667C18.5833 21.6667 17.2361 21.8751 15.9583 22.2917C14.6805 22.7084 13.5138 23.2779 12.4583 24.0001C11.9027 24.389 11.2777 24.5695 10.5833 24.5417C9.88884 24.514 9.30551 24.264 8.83329 23.7917C8.36107 23.2917 8.12496 22.7017 8.12496 22.0217C8.12496 21.3417 8.40273 20.7929 8.95829 20.3751C10.4861 19.2084 12.1877 18.2984 14.0633 17.6451C15.9388 16.9917 17.9177 16.6656 20 16.6667ZM20 6.66675C23.4722 6.66675 26.7433 7.23619 29.8133 8.37508C32.8833 9.51397 35.64 11.1251 38.0833 13.2084C38.6388 13.6806 38.9305 14.264 38.9583 14.9584C38.9861 15.6529 38.75 16.2501 38.25 16.7501C37.7777 17.2223 37.1944 17.4656 36.5 17.4801C35.8055 17.4945 35.1805 17.279 34.625 16.8334C32.625 15.1945 30.3822 13.924 27.8966 13.0217C25.4111 12.1195 22.7788 11.6679 20 11.6667C17.2211 11.6656 14.5894 12.1173 12.105 13.0217C9.62051 13.9262 7.37718 15.1967 5.37496 16.8334C4.8194 17.2779 4.1944 17.4934 3.49995 17.4801C2.80551 17.4667 2.22218 17.2234 1.74995 16.7501C1.24995 16.2501 1.01384 15.6529 1.04162 14.9584C1.0694 14.264 1.36107 13.6806 1.91662 13.2084C4.36107 11.1251 7.11829 9.51397 10.1883 8.37508C13.2583 7.23619 16.5288 6.66675 20 6.66675Z" fill="black"/>
</svg>
